<svg width="36" height="36" xmlns="http://www.w3.org/2000/svg"><path fill-rule="evenodd" clip-rule="evenodd" d="M6.481 17.89c0 6.238 5.057 11.294 11.295 11.294 6.237 0 11.294-5.056 11.294-11.294S24.013 6.596 17.776 6.596c-6.238 0-11.295 5.056-11.295 11.294ZM0 17.947C0 8.047 8.025.024 17.924.024c9.9 0 17.924 8.024 17.924 17.923 0 9.9-8.025 17.925-17.924 17.925C8.024 35.872 0 27.847 0 17.947Zm20.192-6.69c.857 0 1.322.644 1.322 1.465 0 2.822-3.322 4.785-5.714 5.499.5-1.964 1.821-6.963 4.392-6.963Zm-3.963 14.784c3.07 0 5.356-2.215 6.999-4.642l-.894-.679c-1.178 1.428-2.784 3.357-4.785 3.357-1.535 0-2.284-1.287-2.284-2.678 0-.679.107-1.357.214-2.035l.498-.125c3.236-.806 8.928-2.223 8.928-6.052 0-2.25-2.499-3-4.356-3-5.535 0-9.462 5.213-9.462 10.533 0 3.285 1.892 5.32 5.142 5.32Z" fill="currentColor"/></svg>